<?xml version="1.0" standalone="no"?>
<!DOCTYPE svg PUBLIC "-//W3C//DTD SVG 20010904//EN"
 "http://www.w3.org/TR/2001/REC-SVG-20010904/DTD/svg10.dtd">
<svg version="1.0" xmlns="http://www.w3.org/2000/svg"
 width="1062.000000pt" height="472.000000pt" viewBox="0 0 1062.000000 472.000000"
 preserveAspectRatio="xMidYMid meet">
<metadata>
Created by potrace 1.16, written by Peter Selinger 2001-2019
</metadata>
<g transform="translate(0.000000,472.000000) scale(0.100000,-0.100000)"
fill="#000000" stroke="none">
<path d="M8855 4660 c-139 -13 -318 -53 -492 -112 -54 -18 -90 -35 -86 -41 4
-6 0 -8 -9 -5 -8 4 -63 -18 -121 -47 -124 -62 -150 -79 -139 -90 4 -5 1 -5 -6
-1 -7 4 -26 -3 -45 -16 -17 -13 -34 -23 -37 -23 -3 0 -4 -4 -2 -8 1 -5 -2 -6
-8 -2 -17 10 -184 -120 -174 -136 3 -5 -1 -7 -8 -4 -16 6 -72 -40 -64 -53 3
-5 -2 -16 -12 -23 -15 -13 -16 -12 -3 4 25 32 -4 18 -49 -24 l-43 -40 104
-105 c80 -80 106 -101 114 -91 14 19 205 177 213 177 4 0 19 11 32 23 14 13
39 30 55 38 17 8 30 19 30 26 0 6 4 15 9 20 5 5 6 3 2 -4 -12 -21 6 -15 68 22
32 20 93 50 135 67 42 18 79 36 82 41 3 5 9 8 13 8 6 0 25 5 54 16 9 3 21 5
25 4 4 0 21 6 37 14 16 9 32 15 35 14 21 -4 84 15 78 23 -3 6 -1 8 4 5 6 -4
73 2 149 13 266 38 574 20 793 -47 63 -19 123 -39 133 -44 10 -5 23 -7 28 -4
6 3 10 2 10 -4 0 -5 10 -13 23 -17 12 -4 47 -18 77 -32 30 -14 58 -25 62 -24
3 1 12 -5 18 -13 7 -8 17 -15 22 -15 5 0 39 -20 77 -45 38 -25 71 -45 75 -45
3 0 49 -34 101 -76 53 -41 99 -72 104 -69 5 3 13 0 17 -6 4 -8 3 -9 -4 -5 -7
4 -12 4 -12 1 0 -10 53 -50 62 -48 5 2 7 0 7 -5 -4 -23 11 -12 106 82 90 89
126 130 98 113 -5 -3 -14 1 -21 9 -7 8 -10 14 -6 14 4 0 -11 14 -32 31 -22 17
-46 37 -54 45 -59 55 -307 234 -326 234 -2 0 -25 13 -51 29 -94 57 -405 177
-426 164 -5 -3 -7 -1 -4 5 10 16 -185 59 -350 77 -146 15 -328 18 -468 5z"/>
<path d="M8846 4044 c-49 -8 -94 -18 -100 -23 -6 -5 -22 -9 -36 -9 -39 1 -200
-53 -193 -64 3 -6 -3 -7 -17 -3 -15 5 -20 4 -16 -4 4 -6 2 -9 -6 -6 -7 3 -29
-5 -48 -17 -19 -12 -37 -22 -40 -23 -3 -1 -16 -5 -29 -9 -23 -8 -23 -10 -7
-21 15 -12 15 -13 -8 -11 -13 0 -22 5 -19 9 7 11 -25 -6 -52 -27 l-20 -16 20
6 c19 5 19 5 2 -6 -10 -7 -21 -9 -24 -6 -3 3 -13 -3 -22 -12 -9 -10 -11 -11
-6 -3 7 10 2 10 -17 -3 -28 -18 -40 -34 -15 -20 7 4 8 3 4 -2 -5 -5 -16 -9
-25 -9 -9 0 -16 -6 -14 -13 1 -8 -1 -11 -6 -8 -11 6 -73 -49 -64 -58 4 -4 2
-6 -4 -4 -6 2 -30 -14 -53 -35 l-42 -38 24 -29 c14 -16 27 -26 31 -23 3 3 1
12 -5 19 -7 9 -6 14 3 20 7 4 10 3 5 -1 -4 -5 1 -17 10 -28 10 -11 12 -17 6
-13 -17 10 -16 -4 2 -28 7 -10 18 -15 24 -11 7 4 8 -1 4 -12 -3 -10 -3 -15 2
-11 4 4 16 -3 26 -15 18 -20 19 -20 12 -2 -3 11 -3 17 1 14 4 -4 9 -16 11 -29
6 -30 24 -50 44 -50 21 0 101 67 98 82 -1 6 6 12 15 13 24 4 108 66 103 76 -3
4 0 11 6 15 8 4 9 3 5 -4 -11 -18 -1 -15 74 25 38 20 66 41 63 46 -3 6 -1 7 4
4 10 -7 73 10 83 22 3 3 12 7 20 8 8 1 58 14 110 28 81 23 121 28 268 32 189
6 230 1 402 -48 100 -29 249 -96 310 -139 16 -12 36 -18 47 -14 13 4 14 3 5
-3 -10 -8 -10 -12 2 -22 8 -7 21 -9 27 -5 7 4 9 3 6 -3 -8 -13 97 -105 108
-95 5 4 5 2 1 -5 -3 -6 -1 -15 5 -18 13 -8 101 74 93 87 -3 5 0 7 8 6 7 -2 12
3 10 10 -1 8 1 11 6 8 5 -3 30 17 56 43 54 55 55 47 -20 111 -88 75 -154 121
-165 114 -7 -4 -10 -3 -5 4 9 15 -51 55 -72 47 -9 -3 -13 -3 -9 1 13 13 -62
56 -86 49 -14 -4 -18 -3 -9 3 9 6 1 14 -30 28 -23 10 -45 19 -48 19 -3 1 -15
6 -28 13 -42 24 -205 73 -224 69 -10 -3 -15 -1 -12 5 3 5 -2 9 -12 7 -11 -1
-26 1 -34 4 -71 28 -372 34 -524 11z"/>
<path d="M8989 3446 c-3 -3 -21 -6 -40 -7 -86 -4 -249 -56 -299 -96 -8 -6 -18
-12 -23 -12 -17 -1 -67 -33 -63 -40 3 -4 -1 -8 -8 -8 -15 0 -122 -82 -130
-100 -3 -7 40 -58 97 -113 l101 -101 19 23 c10 13 15 16 11 8 -5 -12 37 21 66
50 9 10 146 70 159 70 7 0 10 4 7 9 -3 4 7 8 22 9 15 0 74 4 132 8 74 4 123 2
165 -7 33 -7 68 -13 78 -11 9 1 17 -2 17 -7 0 -5 10 -11 23 -15 12 -3 45 -20
73 -39 27 -18 55 -32 61 -30 6 2 15 -1 19 -8 5 -8 3 -10 -7 -4 -11 7 -12 6 -2
-6 6 -8 26 -23 44 -33 29 -17 32 -17 26 -2 -4 10 -3 15 3 11 12 -7 131 105
124 117 -3 4 -1 7 4 6 5 -2 21 12 36 30 23 27 26 35 15 48 -7 8 -18 13 -25 10
-7 -3 -16 0 -20 6 -5 7 -2 8 6 3 8 -5 11 -3 9 4 -3 7 -18 20 -34 29 -16 9 -36
25 -45 34 -16 18 -170 102 -170 93 0 -3 -10 1 -22 9 -45 29 -181 57 -303 63
-66 3 -122 3 -126 -1z"/>
<path d="M9050 2743 c-8 -2 -22 -7 -30 -10 -8 -3 -24 -7 -34 -8 -11 -1 -22 -7
-24 -14 -2 -6 -9 -8 -15 -4 -7 4 -8 0 -4 -11 4 -11 3 -15 -4 -11 -13 9 -50
-25 -42 -38 3 -6 1 -7 -5 -3 -15 9 -34 -30 -27 -57 5 -16 4 -18 -4 -8 -24 36
-27 -109 -3 -169 14 -34 49 -73 60 -66 6 3 9 -1 8 -10 -2 -23 80 -65 138 -71
38 -4 63 0 100 16 27 12 46 24 43 28 -4 3 -15 0 -24 -8 -16 -13 -17 -12 -4 4
8 10 21 15 31 12 37 -12 106 101 109 177 1 52 -22 133 -48 162 -27 31 -93 76
-103 70 -5 -3 -14 -1 -21 4 -15 12 -77 22 -97 15z"/>
<path d="M148 1847 c-49 -46 -88 -86 -88 -90 0 -3 203 -7 450 -7 l450 0 0 90
0 90 -362 0 -363 -1 -87 -82z"/>
<path d="M2997 1924 c-4 -4 -7 -173 -7 -376 l0 -369 93 3 92 3 0 370 0 370
-85 3 c-47 1 -89 0 -93 -4z"/>
<path d="M4055 1918 c-3 -7 -4 -425 -3 -928 l3 -915 93 -3 92 -3 0 931 0 930
-90 0 c-63 0 -92 -4 -95 -12z"/>
<path d="M1002 1499 l3 -414 93 -3 92 -3 0 328 0 328 -77 75 c-43 42 -86 82
-96 89 -16 13 -17 -6 -15 -400z"/>
<path d="M35 1697 c-3 -7 -4 -147 -3 -312 l3 -300 92 -2 93 -2 0 315 0 314
-90 0 c-64 0 -92 -4 -95 -13z"/>
<path d="M1485 1363 c7 -21 23 -63 35 -93 12 -30 29 -76 38 -102 9 -27 20 -48
24 -48 5 0 7 -4 4 -9 -8 -12 14 -71 26 -71 5 0 7 -4 3 -10 -5 -8 31 -109 54
-150 5 -9 12 -30 16 -48 3 -18 10 -32 14 -32 4 0 8 -6 8 -13 0 -15 94 -270
102 -277 3 -3 7 -12 9 -20 3 -14 35 -103 52 -145 5 -11 29 -74 54 -140 50
-135 40 -133 86 -12 10 27 16 56 13 65 -4 15 -3 15 6 2 9 -13 11 -12 12 5 1
11 2 26 2 32 -1 7 3 11 7 8 13 -8 19 48 7 70 -6 11 -12 29 -13 40 -1 11 -15
47 -30 80 -15 33 -29 67 -30 75 -2 8 -7 23 -13 35 -5 11 -20 49 -32 85 -12 36
-26 69 -31 75 -4 5 -8 15 -8 23 0 13 -20 65 -40 103 -5 9 -14 35 -20 58 -7 26
-15 39 -22 35 -8 -5 -9 -2 -5 9 8 21 -2 49 -14 41 -5 -3 -7 1 -4 8 7 19 -49
170 -60 161 -4 -4 -5 -3 -2 3 7 11 -46 159 -65 181 -7 9 -40 13 -104 13 l-93
0 14 -37z"/>
<path d="M2500 1378 c-32 -73 -146 -386 -139 -382 5 3 6 -2 3 -10 -3 -9 -10
-13 -15 -10 -5 3 -9 0 -9 -7 0 -15 -109 -309 -120 -324 -4 -5 -11 -21 -14 -35
-5 -18 -4 -21 2 -11 8 11 10 8 9 -12 -2 -17 -5 -22 -13 -16 -8 7 -20 -17 -42
-78 -16 -49 -48 -135 -70 -192 -22 -57 -38 -110 -35 -119 4 -9 2 -13 -4 -9 -6
4 -19 -17 -31 -49 l-20 -55 101 3 101 3 32 80 c18 44 31 89 28 100 -4 16 -3
17 5 5 9 -13 11 -12 12 5 1 11 1 24 0 29 -1 5 2 12 7 15 5 3 32 67 60 141 28
74 60 157 72 184 11 27 18 56 16 63 -3 8 -2 12 3 9 5 -3 20 27 34 67 14 39 54
148 90 241 36 94 64 174 61 178 -3 4 -1 8 4 8 5 0 12 8 15 18 3 9 18 54 35
100 l30 82 -99 0 c-94 0 -100 -1 -109 -22z"/>
<path d="M4709 1383 c-8 -10 -53 -53 -99 -95 l-85 -77 438 -1 438 0 -3 92 -3
93 -335 3 c-310 2 -337 1 -351 -15z"/>
<path d="M5902 738 l3 -663 90 0 90 0 2 663 3 662 -95 0 -95 0 2 -662z"/>
<path d="M6255 1378 c-10 -12 -28 -36 -39 -53 -12 -16 -33 -46 -48 -66 -16
-20 -28 -39 -28 -43 0 -3 96 -5 213 -4 l212 3 3 93 3 92 -148 0 c-141 0 -150
-1 -168 -22z"/>
<path d="M6957 1372 c-30 -31 -36 -52 -9 -31 15 13 16 12 3 -3 -7 -10 -17 -16
-21 -13 -7 4 -55 -55 -84 -102 -6 -10 61 -13 321 -13 l328 0 -100 95 -100 94
-156 1 -155 0 -27 -28z"/>
<path d="M7950 1369 c-19 -16 -63 -58 -98 -92 l-64 -62 414 -3 c227 -1 423 0
436 3 21 5 22 10 22 95 l0 90 -337 0 -338 0 -35 -31z"/>
<path d="M9387 1393 c-4 -3 -7 -46 -7 -95 l0 -88 358 0 c196 0 362 4 367 8 6
4 10 13 9 20 -1 6 -2 46 -3 87 l-1 75 -358 0 c-197 0 -362 -3 -365 -7z"/>
<path d="M5438 841 l3 -546 95 -3 94 -3 0 453 0 453 -97 96 -98 96 3 -546z"/>
<path d="M8690 1107 l0 -287 95 0 95 0 0 188 0 188 -71 77 c-39 42 -76 74 -82
70 -5 -3 -7 -1 -4 4 4 6 -2 18 -13 28 -20 18 -20 16 -20 -268z"/>
<path d="M6607 1063 l2 -318 96 -3 95 -3 -2 238 c-3 215 -5 238 -20 237 -9 -1
-14 4 -12 10 4 11 -48 69 -60 67 -3 -1 -6 2 -5 5 2 11 -55 64 -68 64 -7 0 -13
5 -13 10 0 6 -3 10 -7 10 -5 0 -7 -143 -6 -317z"/>
<path d="M9253 1296 l-93 -89 0 -167 0 -167 39 -18 c22 -9 45 -14 52 -10 7 5
10 4 6 -2 -7 -10 80 -49 89 -41 2 3 3 135 2 294 l-3 289 -92 -89z"/>
<path d="M4520 728 c1 -342 4 -457 13 -468 7 -8 49 -51 95 -94 l82 -79 0 546
0 547 -95 0 -95 0 0 -452z"/>
<path d="M7312 628 l3 -553 90 0 90 0 3 553 2 552 -95 0 -95 0 2 -552z"/>
<path d="M7780 725 l0 -457 95 -94 95 -95 -2 548 -3 548 -92 3 -93 3 0 -456z"/>
<path d="M2990 1060 l0 -90 515 0 515 1 0 89 0 90 -515 0 -515 -1 0 -89z"/>
<path d="M30 960 l0 -90 578 3 577 2 0 85 0 85 -577 3 -578 2 0 -90z"/>
<path d="M9380 881 c0 -81 2 -91 21 -102 23 -12 193 -86 414 -180 77 -33 184
-80 238 -105 53 -24 102 -44 107 -44 6 0 10 38 10 93 l-1 92 -62 27 c-34 15
-172 75 -307 133 -135 58 -274 119 -310 135 -118 51 -110 55 -110 -49z"/>
<path d="M2992 503 l3 -428 90 0 90 0 3 428 2 427 -95 0 -95 0 2 -427z"/>
<path d="M35 820 c-2 -4 -3 -173 -2 -376 l2 -369 93 -3 92 -3 0 381 0 381 -91
-2 c-49 -2 -92 -6 -94 -9z"/>
<path d="M1004 816 c-2 -6 -3 -175 -2 -376 l3 -365 90 0 90 0 3 377 2 377 -91
-1 c-58 0 -92 -4 -95 -12z"/>
<path d="M8000 690 l0 -90 341 0 c288 1 340 3 335 15 -3 9 0 12 8 9 18 -7 78
45 69 59 -3 7 -3 9 2 5 11 -11 36 12 28 25 -3 5 -2 7 4 4 5 -3 25 9 43 28 l34
35 -432 0 -432 0 0 -90z"/>
<path d="M9980 284 l0 -196 43 38 c23 21 51 47 62 57 11 11 34 30 51 43 30 23
31 28 33 100 l2 75 -86 39 c-47 22 -90 40 -95 40 -6 0 -10 -74 -10 -196z"/>
<path d="M4757 243 c-4 -3 -7 -44 -7 -90 l0 -83 334 0 334 1 27 25 c23 21 25
27 14 42 -11 14 -11 15 1 5 8 -7 17 -13 22 -13 16 0 78 63 71 73 -3 5 -2 7 4
4 6 -4 21 5 33 18 l23 25 -425 0 c-233 0 -428 -3 -431 -7z"/>
<path d="M8000 160 l0 -90 338 0 337 0 92 83 c50 45 92 85 92 89 1 4 -192 7
-429 8 l-430 0 0 -90z"/>
<path d="M9214 237 c-3 -8 -4 -47 -2 -88 l3 -74 362 -3 361 -2 -1 87 -2 88
-358 3 c-294 2 -358 0 -363 -11z"/>
</g>
</svg>
